<svg height="512pt" viewBox="0 -20 512.001 512" width="512pt" xmlns="http://www.w3.org/2000/svg"><path d="m196.9375 0h91.742188c9.609374 0 17.941406 6.644531 20.085937 16.015625l4.582031 20.042969v13.820312h-116.410156zm0 0" fill="#919191"/><path d="m105.59375 0h100.671875c9.609375 0 17.945313 6.644531 20.085937 16.015625l4.582032 20.042969v13.820312h-125.339844zm0 0" fill="#afafaf"/><path d="m512 92.71875v-36.058594c0-11.378906-9.226562-20.601562-20.605469-20.601562h-351.289062l-4.582031-20.046875c-2.140626-9.367188-10.472657-16.011719-20.085938-16.011719h-94.832031c-11.378907 0-20.605469 9.226562-20.605469 20.605469v72.113281zm0 0" fill="#d8d8d8"/><path d="m512 56.660156v36.058594h-30.90625v-36.058594c0-11.382812-9.21875-20.601562-20.601562-20.601562h30.902343c11.386719 0 20.605469 9.21875 20.605469 20.601562zm0 0" fill="#afafaf"/><path d="m0 72.113281v309.054688c0 11.378906 9.226562 20.605469 20.605469 20.605469h470.792969c11.378906 0 20.601562-9.226563 20.601562-20.605469v-309.054688zm0 0" fill="#f2d67c"/><path d="m512 72.113281v309.054688c0 11.382812-9.21875 20.605469-20.605469 20.605469h-30.902343c11.382812 0 20.601562-9.230469 20.601562-20.605469v-309.054688zm0 0" fill="#e2b061"/><path d="m475.945312 370.867188c2.84375 0 5.148438-2.308594 5.148438-5.152344v-293.601563h-450.1875v293.601563c0 2.84375 2.304688 5.152344 5.148438 5.152344zm0 0" fill="#fafeff"/><path d="m95.292969 43.785156h-52.539063c-4.269531 0-7.726562-3.460937-7.726562-7.726562s3.457031-7.726563 7.726562-7.726563h52.539063c4.265625 0 7.726562 3.460938 7.726562 7.726563s-3.460937 7.726562-7.726562 7.726562zm0 0" fill="#919191"/><path d="m278.246094 198.3125c-2.550782 0-4.957032-1.265625-6.398438-3.402344l-15.296875-22.632812-15.375 22.648437c-1.558593 2.292969-4.226562 3.574219-6.992187 3.363281-2.765625-.214843-5.203125-1.898437-6.386719-4.40625l-26.734375-56.660156c-1.820312-3.859375-.167969-8.464844 3.691406-10.285156 3.855469-1.820312 8.460938-.167969 10.28125 3.691406l20.960938 44.417969 14.175781-20.882813c1.4375-2.121093 3.832031-3.386718 6.390625-3.386718h.007812c2.566407.003906 4.960938 1.273437 6.394532 3.398437l14.085937 20.839844 20.945313-44.386719c1.820312-3.859375 6.425781-5.511718 10.28125-3.691406 3.859375 1.820312 5.511718 6.425781 3.691406 10.285156l-26.734375 56.660156c-1.183594 2.511719-3.625 4.195313-6.394531 4.40625-.199219.015626-.398438.023438-.59375.023438zm0 0" fill="#747a89"/><path d="m400.839844 198.3125c-2.554688 0-4.957032-1.265625-6.402344-3.402344l-15.296875-22.632812-15.375 22.648437c-1.554687 2.292969-4.226563 3.574219-6.992187 3.363281-2.765626-.214843-5.203126-1.898437-6.386719-4.40625l-26.734375-56.660156c-1.820313-3.859375-.167969-8.464844 3.691406-10.285156s8.464844-.167969 10.285156 3.691406l20.957032 44.417969 14.179687-20.882813c1.4375-2.121093 3.832031-3.386718 6.390625-3.386718h.007812c2.5625.003906 4.957032 1.273437 6.394532 3.398437l14.085937 20.839844 20.941407-44.386719c1.820312-3.859375 6.429687-5.511718 10.285156-3.691406 3.859375 1.820312 5.511718 6.425781 3.691406 10.285156l-26.734375 56.660156c-1.183594 2.511719-3.625 4.195313-6.394531 4.40625-.199219.015626-.398438.023438-.59375.023438zm0 0" fill="#747a89"/><path d="m154.625 198.3125c-2.554688 0-4.957031-1.265625-6.402344-3.402344l-15.296875-22.632812-15.371093 22.648437c-1.558594 2.292969-4.230469 3.574219-6.992188 3.363281-2.765625-.214843-5.207031-1.898437-6.386719-4.40625l-26.734375-56.660156c-1.824218-3.859375-.171875-8.464844 3.691406-10.285156 3.855469-1.820312 8.460938-.167969 10.28125 3.691406l20.957032 44.417969 14.179687-20.882813c1.4375-2.121093 3.832031-3.386718 6.390625-3.386718h.007813c2.5625.003906 4.957031 1.273437 6.394531 3.398437l14.085938 20.839844 20.941406-44.386719c1.820312-3.859375 6.429687-5.511718 10.285156-3.691406 3.859375 1.820312 5.511719 6.425781 3.691406 10.285156l-26.734375 56.660156c-1.183593 2.511719-3.625 4.195313-6.394531 4.40625-.199219.015626-.398438.023438-.59375.023438zm0 0" fill="#747a89"/><path d="m445.039062 312.148438c2.84375 0 5.148438-2.308594 5.148438-5.152344v-51.507813c0-2.847656-2.304688-5.152343-5.148438-5.152343h-175.132812c-2.84375 0-5.148438 2.304687-5.148438 5.152343v51.507813c0 2.84375 2.304688 5.152344 5.148438 5.152344zm0 0" fill="#83cc9a"/><g fill="#919191"><path d="m138.558594 258.0625h-76.234375c-4.265625 0-7.722657-3.460938-7.722657-7.726562 0-4.265626 3.457032-7.726563 7.722657-7.726563h76.234375c4.269531 0 7.726562 3.460937 7.726562 7.726563 0 4.265624-3.457031 7.726562-7.726562 7.726562zm0 0"/><path d="m217.882812 258.0625h-43.265624c-4.269532 0-7.726563-3.460938-7.726563-7.726562 0-4.265626 3.457031-7.726563 7.726563-7.726563h43.265624c4.265626 0 7.726563 3.460937 7.726563 7.726563 0 4.265624-3.460937 7.726562-7.726563 7.726562zm0 0"/><path d="m138.558594 288.96875h-76.234375c-4.265625 0-7.722657-3.460938-7.722657-7.726562 0-4.269532 3.457032-7.726563 7.722657-7.726563h76.234375c4.269531 0 7.726562 3.457031 7.726562 7.726563 0 4.265624-3.457031 7.726562-7.726562 7.726562zm0 0"/><path d="m217.882812 288.96875h-43.265624c-4.269532 0-7.726563-3.460938-7.726563-7.726562 0-4.269532 3.457031-7.726563 7.726563-7.726563h43.265624c4.265626 0 7.726563 3.457031 7.726563 7.726563 0 4.265624-3.460937 7.726562-7.726563 7.726562zm0 0"/><path d="m138.558594 319.871094h-76.234375c-4.265625 0-7.722657-3.457032-7.722657-7.722656 0-4.269532 3.457032-7.726563 7.722657-7.726563h76.234375c4.269531 0 7.726562 3.457031 7.726562 7.726563 0 4.265624-3.457031 7.722656-7.726562 7.722656zm0 0"/><path d="m217.882812 319.871094h-43.265624c-4.269532 0-7.726563-3.457032-7.726563-7.722656 0-4.269532 3.457031-7.726563 7.726563-7.726563h43.265624c4.265626 0 7.726563 3.457031 7.726563 7.726563 0 4.265624-3.460937 7.722656-7.726563 7.722656zm0 0"/></g><path d="m412.332031 364.425781-93.070312-71.296875c-3.3125-2.535156-8.109375-.296875-8.292969 3.871094l-5.210938 117.121094c-.171874 3.871094 3.824219 6.546875 7.339844 4.90625l35.101563-16.367188 29.234375 62.6875c2.410156 5.164063 8.550781 7.402344 13.71875 4.992188l9.355468-4.363282c5.167969-2.410156 7.402344-8.550781 4.992188-13.71875l-29.230469-62.6875 35.105469-16.371093c3.511719-1.636719 4.035156-6.417969.957031-8.773438zm0 0" fill="#747a89"/></svg>